<svg width="256" height="256" viewBox="0 0 256 256" fill="none" xmlns="http://www.w3.org/2000/svg">
    <defs>
        <linearGradient id="gradient-js" x1="28" y1="228" x2="228" y2="28" gradientUnits="userSpaceOnUse">
            <stop offset="0" stop-color="#6366f1"/> <stop offset="1" stop-color="#34d399"/> </linearGradient>
        
        <filter id="glow" x="-20%" y="-20%" width="140%" height="140%" filterUnits="userSpaceOnUse">
            <feGaussianBlur stdDeviation="5" result="blur"/>
            <feMerge>
                <feMergeNode in="blur"/>
                <feMergeNode in="SourceGraphic"/>
            </feMerge>
        </filter>
    </defs>

    <g filter="url(#glow)">
        <path d="M110 60 C 110 60, 90 60, 90 80 C 90 100, 110 110, 140 120 C 170 130, 190 145, 190 170 C 190 195, 170 210, 140 210 M140 210 C 110 210, 80 195, 60 170 C 60 170, 50 160, 60 140 M110 60 L 140 60 M140 60 C 160 60, 170 70, 170 90 M170 90 L 170 140" stroke="url(#gradient-js)" stroke-width="12" stroke-linecap="round" stroke-linejoin="round"/>
        
        <circle cx="140" cy="210" r="14" fill="url(#gradient-js)"/>
        <circle cx="140" cy="210" r="25" stroke="url(#gradient-js)" stroke-width="4" stroke-dasharray="8 8"/>
    </g>
</svg>
